<svg width="17" height="529" viewBox="0 0 17 529" fill="none" xmlns="http://www.w3.org/2000/svg">
<line y1="-1" x2="528" y2="-1" transform="matrix(0.00203544 0.999998 -0.999998 0.00180302 6.5 1)" stroke="#2DEA8F" stroke-width="2"/>
<path d="M15.5 129C15.5 132.866 12.366 136 8.5 136C4.63401 136 1.5 132.866 1.5 129C1.5 125.134 4.63401 122 8.5 122C12.366 122 15.5 125.134 15.5 129Z" fill="#243D44" stroke="#2DEA8F" stroke-width="2"/>
<path d="M15.5 265C15.5 268.866 12.366 272 8.5 272C4.63401 272 1.5 268.866 1.5 265C1.5 261.134 4.63401 258 8.5 258C12.366 258 15.5 261.134 15.5 265Z" fill="#243D44" stroke="#2DEA8F" stroke-width="2"/>
<path d="M15.5 401C15.5 404.866 12.366 408 8.5 408C4.63401 408 1.5 404.866 1.5 401C1.5 397.134 4.63401 394 8.5 394C12.366 394 15.5 397.134 15.5 401Z" fill="#243D44" stroke="#2DEA8F" stroke-width="2"/>
</svg>
