<svg width="16" height="550" viewBox="0 0 16 550" fill="none" xmlns="http://www.w3.org/2000/svg">
<line x1="8" y1="4.37114e-08" x2="7.99998" y2="550" stroke="#2DEA8F" stroke-width="2"/>
<path d="M15 119C15 122.866 11.866 126 8 126C4.13401 126 1 122.866 1 119C1 115.134 4.13401 112 8 112C11.866 112 15 115.134 15 119Z" fill="#243D44" stroke="#2DEA8F" stroke-width="2"/>
<path d="M15 275C15 278.866 11.866 282 8 282C4.13401 282 1 278.866 1 275C1 271.134 4.13401 268 8 268C11.866 268 15 271.134 15 275Z" fill="#243D44" stroke="#2DEA8F" stroke-width="2"/>
<path d="M15 431C15 434.866 11.866 438 8 438C4.13401 438 1 434.866 1 431C1 427.134 4.13401 424 8 424C11.866 424 15 427.134 15 431Z" fill="#243D44" stroke="#2DEA8F" stroke-width="2"/>
</svg>
