<svg width="16" height="700" viewBox="0 0 16 700" fill="none" xmlns="http://www.w3.org/2000/svg">
<line x1="8" y1="4.37114e-08" x2="7.99997" y2="700" stroke="#2DEA8F" stroke-width="2"/>
<path d="M15 121C15 124.866 11.866 128 8 128C4.13401 128 1 124.866 1 121C1 117.134 4.13401 114 8 114C11.866 114 15 117.134 15 121Z" fill="#243D44" stroke="#2DEA8F" stroke-width="2"/>
<path d="M15 277C15 280.866 11.866 284 8 284C4.13401 284 1 280.866 1 277C1 273.134 4.13401 270 8 270C11.866 270 15 273.134 15 277Z" fill="#243D44" stroke="#2DEA8F" stroke-width="2"/>
<path d="M15 433C15 436.866 11.866 440 8 440C4.13401 440 1 436.866 1 433C1 429.134 4.13401 426 8 426C11.866 426 15 429.134 15 433Z" fill="#243D44" stroke="#2DEA8F" stroke-width="2"/>
<path d="M15 589C15 592.866 11.866 596 8 596C4.13401 596 1 592.866 1 589C1 585.134 4.13401 582 8 582C11.866 582 15 585.134 15 589Z" fill="#243D44" stroke="#2DEA8F" stroke-width="2"/>
</svg>
